<?xml version="1.0" encoding="utf-8"?>
<!-- Generator: Adobe Illustrator 16.0.0, SVG Export Plug-In . SVG Version: 6.00 Build 0)  -->
<!DOCTYPE svg PUBLIC "-//W3C//DTD SVG 1.0//EN" "http://www.w3.org/TR/2001/REC-SVG-20010904/DTD/svg10.dtd">
<svg version="1.0" id="Layer_1" xmlns="http://www.w3.org/2000/svg" xmlns:xlink="http://www.w3.org/1999/xlink" x="0px" y="0px"
	 width="100px" height="100px" viewBox="0 0 100 100" enable-background="new 0 0 100 100" xml:space="preserve">
<polygon fill="#00B8D4" points="62.57,36.667 57.421,36.667 64.088,10 69.244,10 "/>
<path fill="#00B8D4" d="M78.054,10L89.03,20.978c1.293,1.294,1.293,3.417,0,4.712L78.054,36.667l-3.536-3.535l9.798-9.798
	l-9.798-9.798L78.054,10z"/>
<path fill="#00B8D4" d="M48.609,36.667L37.633,25.69c-1.297-1.296-1.297-3.418,0-4.712L48.609,10l3.534,3.535l-9.797,9.798
	l9.797,9.798L48.609,36.667z"/>
<path fill="#020202" d="M76.666,63.331H49.998c0-7.362-5.969-13.332-13.332-13.332H16.665v-6.667H10v46.665h6.665V85.7l13.533,3.378
	c3.558,0.894,9.438,1.188,13.063,0.658l42.621-6.914c0.815-0.338,1.55-0.827,2.164-1.444c1.206-1.206,1.953-2.872,1.953-4.714
	C89.999,69.303,84.026,63.331,76.666,63.331z M42.305,83.143c-2.771,0.411-7.771,0.149-10.492-0.526l-15.148-3.79v-22.16h20.002
	c3.675,0,6.667,2.995,6.667,6.667H30V70h46.666c3.61,0,6.548,2.896,6.646,6.49L42.305,83.143z"/>
</svg>
